<mxfile host="app.diagrams.net" modified="2022-02-01T17:59:45.913Z" agent="5.0 (X11; Linux x86_64) AppleWebKit/537.36 (KHTML, like Gecko) Chrome/97.0.4692.71 Safari/537.36" etag="kOdPKnv3kTInx65zYuIF" version="16.5.2" type="github">
  <diagram id="D1MeITydLuHfvFWJPXE6" name="Page-1">
    <mxGraphModel dx="1990" dy="805" grid="1" gridSize="10" guides="1" tooltips="1" connect="1" arrows="1" fold="1" page="1" pageScale="1" pageWidth="1169" pageHeight="827" math="0" shadow="0">
      <root>
        <mxCell id="0" />
        <mxCell id="1" parent="0" />
        <mxCell id="1X8zeMfitHZZ_awnZI0S-2" value="" style="sketch=0;points=[[0,0,0],[0.25,0,0],[0.5,0,0],[0.75,0,0],[1,0,0],[0,1,0],[0.25,1,0],[0.5,1,0],[0.75,1,0],[1,1,0],[0,0.25,0],[0,0.5,0],[0,0.75,0],[1,0.25,0],[1,0.5,0],[1,0.75,0]];outlineConnect=0;fontColor=#232F3E;gradientColor=#F78E04;gradientDirection=north;fillColor=#D05C17;strokeColor=#ffffff;dashed=0;verticalLabelPosition=bottom;verticalAlign=top;align=center;html=1;fontSize=12;fontStyle=0;aspect=fixed;shape=mxgraph.aws4.resourceIcon;resIcon=mxgraph.aws4.lambda;" vertex="1" parent="1">
          <mxGeometry x="328" y="369.5" width="50" height="50" as="geometry" />
        </mxCell>
        <mxCell id="1X8zeMfitHZZ_awnZI0S-3" value="" style="sketch=0;points=[[0,0,0],[0.25,0,0],[0.5,0,0],[0.75,0,0],[1,0,0],[0,1,0],[0.25,1,0],[0.5,1,0],[0.75,1,0],[1,1,0],[0,0.25,0],[0,0.5,0],[0,0.75,0],[1,0.25,0],[1,0.5,0],[1,0.75,0]];outlineConnect=0;fontColor=#232F3E;gradientColor=#F78E04;gradientDirection=north;fillColor=#D05C17;strokeColor=#ffffff;dashed=0;verticalLabelPosition=bottom;verticalAlign=top;align=center;html=1;fontSize=12;fontStyle=0;aspect=fixed;shape=mxgraph.aws4.resourceIcon;resIcon=mxgraph.aws4.lambda;" vertex="1" parent="1">
          <mxGeometry x="667" y="369.5" width="50" height="50" as="geometry" />
        </mxCell>
        <mxCell id="1X8zeMfitHZZ_awnZI0S-7" value="" style="endArrow=classic;html=1;rounded=0;exitX=1;exitY=0.5;exitDx=0;exitDy=0;entryX=0;entryY=0.5;entryDx=0;entryDy=0;entryPerimeter=0;exitPerimeter=0;" edge="1" parent="1" source="1X8zeMfitHZZ_awnZI0S-12" target="1X8zeMfitHZZ_awnZI0S-2">
          <mxGeometry width="50" height="50" relative="1" as="geometry">
            <mxPoint x="768" y="560" as="sourcePoint" />
            <mxPoint x="818" y="510" as="targetPoint" />
          </mxGeometry>
        </mxCell>
        <mxCell id="1X8zeMfitHZZ_awnZI0S-8" value="" style="endArrow=classic;html=1;rounded=0;exitX=1;exitY=0.5;exitDx=0;exitDy=0;" edge="1" parent="1">
          <mxGeometry width="50" height="50" relative="1" as="geometry">
            <mxPoint x="378.00000000000045" y="370.0000000000002" as="sourcePoint" />
            <mxPoint x="498" y="369" as="targetPoint" />
          </mxGeometry>
        </mxCell>
        <mxCell id="1X8zeMfitHZZ_awnZI0S-9" value="" style="endArrow=classic;html=1;rounded=0;exitX=1;exitY=0.5;exitDx=0;exitDy=0;" edge="1" parent="1">
          <mxGeometry width="50" height="50" relative="1" as="geometry">
            <mxPoint x="378.0000000000009" y="380" as="sourcePoint" />
            <mxPoint x="498" y="379" as="targetPoint" />
          </mxGeometry>
        </mxCell>
        <mxCell id="1X8zeMfitHZZ_awnZI0S-10" value="" style="endArrow=classic;html=1;rounded=0;exitX=1;exitY=0.5;exitDx=0;exitDy=0;" edge="1" parent="1">
          <mxGeometry width="50" height="50" relative="1" as="geometry">
            <mxPoint x="379.0000000000009" y="418.5" as="sourcePoint" />
            <mxPoint x="498" y="418" as="targetPoint" />
          </mxGeometry>
        </mxCell>
        <mxCell id="1X8zeMfitHZZ_awnZI0S-11" value="..." style="text;html=1;strokeColor=none;fillColor=none;align=center;verticalAlign=middle;whiteSpace=wrap;rounded=0;fontSize=16;fontStyle=1;spacing=-1;spacingTop=-3;horizontal=0;" vertex="1" parent="1">
          <mxGeometry x="408" y="384" width="60" height="30" as="geometry" />
        </mxCell>
        <mxCell id="1X8zeMfitHZZ_awnZI0S-12" value="" style="sketch=0;points=[[0,0,0],[0.25,0,0],[0.5,0,0],[0.75,0,0],[1,0,0],[0,1,0],[0.25,1,0],[0.5,1,0],[0.75,1,0],[1,1,0],[0,0.25,0],[0,0.5,0],[0,0.75,0],[1,0.25,0],[1,0.5,0],[1,0.75,0]];outlineConnect=0;fontColor=#232F3E;gradientColor=#60A337;gradientDirection=north;fillColor=#277116;strokeColor=#ffffff;dashed=0;verticalLabelPosition=bottom;verticalAlign=top;align=center;html=1;fontSize=12;fontStyle=0;aspect=fixed;shape=mxgraph.aws4.resourceIcon;resIcon=mxgraph.aws4.s3;" vertex="1" parent="1">
          <mxGeometry x="206.5" y="369.5" width="50" height="50" as="geometry" />
        </mxCell>
        <mxCell id="1X8zeMfitHZZ_awnZI0S-13" value="" style="sketch=0;points=[[0,0,0],[0.25,0,0],[0.5,0,0],[0.75,0,0],[1,0,0],[0,1,0],[0.25,1,0],[0.5,1,0],[0.75,1,0],[1,1,0],[0,0.25,0],[0,0.5,0],[0,0.75,0],[1,0.25,0],[1,0.5,0],[1,0.75,0]];outlineConnect=0;fontColor=#232F3E;gradientColor=#60A337;gradientDirection=north;fillColor=#277116;strokeColor=#ffffff;dashed=0;verticalLabelPosition=bottom;verticalAlign=top;align=center;html=1;fontSize=12;fontStyle=0;aspect=fixed;shape=mxgraph.aws4.resourceIcon;resIcon=mxgraph.aws4.s3;" vertex="1" parent="1">
          <mxGeometry x="497" y="369.5" width="50" height="50" as="geometry" />
        </mxCell>
        <mxCell id="1X8zeMfitHZZ_awnZI0S-14" value="" style="endArrow=classic;html=1;rounded=0;exitX=1;exitY=0.5;exitDx=0;exitDy=0;" edge="1" parent="1">
          <mxGeometry width="50" height="50" relative="1" as="geometry">
            <mxPoint x="547.0000000000007" y="395.0000000000002" as="sourcePoint" />
            <mxPoint x="667" y="394" as="targetPoint" />
          </mxGeometry>
        </mxCell>
        <mxCell id="1X8zeMfitHZZ_awnZI0S-15" value="" style="shape=image;html=1;verticalAlign=top;verticalLabelPosition=bottom;labelBackgroundColor=#ffffff;imageAspect=0;aspect=fixed;image=https://cdn3.iconfinder.com/data/icons/dompicon-glyph-file-format-2/256/file-csv-format-type-128.png" vertex="1" parent="1">
          <mxGeometry x="67" y="360" width="69" height="69" as="geometry" />
        </mxCell>
        <mxCell id="1X8zeMfitHZZ_awnZI0S-16" value="" style="endArrow=classic;html=1;rounded=0;exitX=1;exitY=0.5;exitDx=0;exitDy=0;entryX=0;entryY=0.5;entryDx=0;entryDy=0;entryPerimeter=0;exitPerimeter=0;" edge="1" parent="1">
          <mxGeometry width="50" height="50" relative="1" as="geometry">
            <mxPoint x="135" y="394.08" as="sourcePoint" />
            <mxPoint x="206.49999999999977" y="394.08" as="targetPoint" />
          </mxGeometry>
        </mxCell>
        <mxCell id="1X8zeMfitHZZ_awnZI0S-21" value="" style="sketch=0;points=[[0,0,0],[0.25,0,0],[0.5,0,0],[0.75,0,0],[1,0,0],[0,1,0],[0.25,1,0],[0.5,1,0],[0.75,1,0],[1,1,0],[0,0.25,0],[0,0.5,0],[0,0.75,0],[1,0.25,0],[1,0.5,0],[1,0.75,0]];outlineConnect=0;fontColor=#232F3E;gradientColor=#F78E04;gradientDirection=north;fillColor=#D05C17;strokeColor=#ffffff;dashed=0;verticalLabelPosition=bottom;verticalAlign=top;align=center;html=1;fontSize=12;fontStyle=0;aspect=fixed;shape=mxgraph.aws4.resourceIcon;resIcon=mxgraph.aws4.lambda;" vertex="1" parent="1">
          <mxGeometry x="328.5" y="834" width="50" height="50" as="geometry" />
        </mxCell>
        <mxCell id="1X8zeMfitHZZ_awnZI0S-22" value="" style="sketch=0;points=[[0,0,0],[0.25,0,0],[0.5,0,0],[0.75,0,0],[1,0,0],[0,1,0],[0.25,1,0],[0.5,1,0],[0.75,1,0],[1,1,0],[0,0.25,0],[0,0.5,0],[0,0.75,0],[1,0.25,0],[1,0.5,0],[1,0.75,0]];outlineConnect=0;fontColor=#232F3E;gradientColor=#F78E04;gradientDirection=north;fillColor=#D05C17;strokeColor=#ffffff;dashed=0;verticalLabelPosition=bottom;verticalAlign=top;align=center;html=1;fontSize=12;fontStyle=0;aspect=fixed;shape=mxgraph.aws4.resourceIcon;resIcon=mxgraph.aws4.lambda;" vertex="1" parent="1">
          <mxGeometry x="667.5" y="834" width="50" height="50" as="geometry" />
        </mxCell>
        <mxCell id="1X8zeMfitHZZ_awnZI0S-25" value="" style="endArrow=classic;html=1;rounded=0;exitX=1;exitY=0.5;exitDx=0;exitDy=0;entryX=0;entryY=0.5;entryDx=0;entryDy=0;entryPerimeter=0;exitPerimeter=0;" edge="1" parent="1" source="1X8zeMfitHZZ_awnZI0S-30" target="1X8zeMfitHZZ_awnZI0S-21">
          <mxGeometry width="50" height="50" relative="1" as="geometry">
            <mxPoint x="768.5" y="1024.5" as="sourcePoint" />
            <mxPoint x="818.5" y="974.5" as="targetPoint" />
          </mxGeometry>
        </mxCell>
        <mxCell id="1X8zeMfitHZZ_awnZI0S-30" value="" style="sketch=0;points=[[0,0,0],[0.25,0,0],[0.5,0,0],[0.75,0,0],[1,0,0],[0,1,0],[0.25,1,0],[0.5,1,0],[0.75,1,0],[1,1,0],[0,0.25,0],[0,0.5,0],[0,0.75,0],[1,0.25,0],[1,0.5,0],[1,0.75,0]];outlineConnect=0;fontColor=#232F3E;gradientColor=#60A337;gradientDirection=north;fillColor=#277116;strokeColor=#ffffff;dashed=0;verticalLabelPosition=bottom;verticalAlign=top;align=center;html=1;fontSize=12;fontStyle=0;aspect=fixed;shape=mxgraph.aws4.resourceIcon;resIcon=mxgraph.aws4.s3;" vertex="1" parent="1">
          <mxGeometry x="207" y="834" width="50" height="50" as="geometry" />
        </mxCell>
        <mxCell id="1X8zeMfitHZZ_awnZI0S-31" value="" style="sketch=0;points=[[0,0,0],[0.25,0,0],[0.5,0,0],[0.75,0,0],[1,0,0],[0,1,0],[0.25,1,0],[0.5,1,0],[0.75,1,0],[1,1,0],[0,0.25,0],[0,0.5,0],[0,0.75,0],[1,0.25,0],[1,0.5,0],[1,0.75,0]];outlineConnect=0;fontColor=#232F3E;gradientColor=#60A337;gradientDirection=north;fillColor=#277116;strokeColor=#ffffff;dashed=0;verticalLabelPosition=bottom;verticalAlign=top;align=center;html=1;fontSize=12;fontStyle=0;aspect=fixed;shape=mxgraph.aws4.resourceIcon;resIcon=mxgraph.aws4.s3;" vertex="1" parent="1">
          <mxGeometry x="497.5" y="834" width="50" height="50" as="geometry" />
        </mxCell>
        <mxCell id="1X8zeMfitHZZ_awnZI0S-32" value="" style="endArrow=classic;html=1;rounded=0;exitX=1;exitY=0.5;exitDx=0;exitDy=0;" edge="1" parent="1">
          <mxGeometry width="50" height="50" relative="1" as="geometry">
            <mxPoint x="547.5000000000009" y="859.5000000000002" as="sourcePoint" />
            <mxPoint x="667.5" y="858.5" as="targetPoint" />
          </mxGeometry>
        </mxCell>
        <mxCell id="1X8zeMfitHZZ_awnZI0S-33" value="" style="shape=image;html=1;verticalAlign=top;verticalLabelPosition=bottom;labelBackgroundColor=#ffffff;imageAspect=0;aspect=fixed;image=https://cdn3.iconfinder.com/data/icons/dompicon-glyph-file-format-2/256/file-csv-format-type-128.png" vertex="1" parent="1">
          <mxGeometry x="67.5" y="824.5" width="69" height="69" as="geometry" />
        </mxCell>
        <mxCell id="1X8zeMfitHZZ_awnZI0S-43" value="" style="group;fontSize=6;" vertex="1" connectable="0" parent="1">
          <mxGeometry x="40" y="160" width="930" height="419" as="geometry" />
        </mxCell>
        <mxCell id="1X8zeMfitHZZ_awnZI0S-39" value="" style="endArrow=none;dashed=1;html=1;rounded=0;fontSize=16;" edge="1" parent="1X8zeMfitHZZ_awnZI0S-43">
          <mxGeometry width="50" height="50" relative="1" as="geometry">
            <mxPoint y="400" as="sourcePoint" />
            <mxPoint x="930" y="400" as="targetPoint" />
          </mxGeometry>
        </mxCell>
        <mxCell id="1X8zeMfitHZZ_awnZI0S-40" value="" style="endArrow=none;dashed=1;html=1;rounded=0;fontSize=16;" edge="1" parent="1X8zeMfitHZZ_awnZI0S-43">
          <mxGeometry width="50" height="50" relative="1" as="geometry">
            <mxPoint y="400" as="sourcePoint" />
            <mxPoint as="targetPoint" />
          </mxGeometry>
        </mxCell>
        <mxCell id="1X8zeMfitHZZ_awnZI0S-41" value="" style="endArrow=none;dashed=1;html=1;rounded=0;fontSize=16;" edge="1" parent="1X8zeMfitHZZ_awnZI0S-43">
          <mxGeometry width="50" height="50" relative="1" as="geometry">
            <mxPoint as="sourcePoint" />
            <mxPoint x="930" as="targetPoint" />
          </mxGeometry>
        </mxCell>
        <mxCell id="1X8zeMfitHZZ_awnZI0S-42" value="" style="endArrow=none;dashed=1;html=1;rounded=0;fontSize=16;" edge="1" parent="1X8zeMfitHZZ_awnZI0S-43">
          <mxGeometry width="50" height="50" relative="1" as="geometry">
            <mxPoint x="930" y="400" as="sourcePoint" />
            <mxPoint x="930" as="targetPoint" />
          </mxGeometry>
        </mxCell>
        <mxCell id="1X8zeMfitHZZ_awnZI0S-49" value="NOTIFICATION FLOW PRODUCTION" style="text;html=1;strokeColor=none;fillColor=none;align=center;verticalAlign=middle;whiteSpace=wrap;rounded=0;labelBackgroundColor=none;fontSize=16;fontStyle=1" vertex="1" parent="1X8zeMfitHZZ_awnZI0S-43">
          <mxGeometry width="290" height="30" as="geometry" />
        </mxCell>
        <mxCell id="1X8zeMfitHZZ_awnZI0S-20" value="Mandril App" style="rounded=0;whiteSpace=wrap;html=1;fontSize=16;" vertex="1" parent="1X8zeMfitHZZ_awnZI0S-43">
          <mxGeometry x="772" y="270" width="120" height="60" as="geometry" />
        </mxCell>
        <mxCell id="1X8zeMfitHZZ_awnZI0S-19" value="" style="outlineConnect=0;dashed=0;verticalLabelPosition=bottom;verticalAlign=top;align=center;html=1;shape=mxgraph.aws3.ec2;fillColor=#F58534;gradientColor=none;fontSize=16;" vertex="1" parent="1X8zeMfitHZZ_awnZI0S-43">
          <mxGeometry x="627" y="71" width="49.35" height="60" as="geometry" />
        </mxCell>
        <mxCell id="1X8zeMfitHZZ_awnZI0S-4" value="mrbelly_app" style="sketch=0;outlineConnect=0;fontColor=#232F3E;gradientColor=none;fillColor=#2E27AD;strokeColor=none;dashed=0;verticalLabelPosition=bottom;verticalAlign=top;align=center;html=1;fontSize=12;fontStyle=0;aspect=fixed;pointerEvents=1;shape=mxgraph.aws4.rds_mysql_instance;" vertex="1" parent="1X8zeMfitHZZ_awnZI0S-43">
          <mxGeometry x="781.72" y="144" width="78" height="78" as="geometry" />
        </mxCell>
        <mxCell id="1X8zeMfitHZZ_awnZI0S-54" value="notify_yyyymmdd.csv" style="text;html=1;strokeColor=none;fillColor=none;align=center;verticalAlign=middle;whiteSpace=wrap;rounded=0;labelBackgroundColor=none;fontSize=12;" vertex="1" parent="1X8zeMfitHZZ_awnZI0S-43">
          <mxGeometry y="270" width="130" height="30" as="geometry" />
        </mxCell>
        <mxCell id="1X8zeMfitHZZ_awnZI0S-55" value="&lt;span id=&quot;docs-internal-guid-4e5d340d-7fff-bbe1-20c7-7e94b57e3671&quot; style=&quot;font-size: 12px&quot;&gt;&lt;p dir=&quot;ltr&quot; style=&quot;line-height: 1.38 ; margin-top: 0pt ; margin-bottom: 0pt ; font-size: 12px&quot;&gt;&lt;span style=&quot;font-size: 12px ; font-family: &amp;#34;arial&amp;#34; ; background-color: transparent ; vertical-align: baseline&quot;&gt;mr-belly-file-splitter-production&lt;/span&gt;&lt;/p&gt;&lt;/span&gt;" style="text;html=1;strokeColor=none;fillColor=none;align=center;verticalAlign=middle;whiteSpace=wrap;rounded=0;labelBackgroundColor=none;fontSize=12;fontStyle=1" vertex="1" parent="1X8zeMfitHZZ_awnZI0S-43">
          <mxGeometry x="260" y="270" width="110" height="50" as="geometry" />
        </mxCell>
        <mxCell id="1X8zeMfitHZZ_awnZI0S-56" value="&lt;span id=&quot;docs-internal-guid-4e5d340d-7fff-bbe1-20c7-7e94b57e3671&quot; style=&quot;font-size: 12px&quot;&gt;&lt;p dir=&quot;ltr&quot; style=&quot;line-height: 1.38 ; margin-top: 0pt ; margin-bottom: 0pt ; font-size: 12px&quot;&gt;&lt;span style=&quot;font-size: 12px ; font-family: &amp;#34;arial&amp;#34; ; background-color: transparent ; vertical-align: baseline&quot;&gt;mr-belly-production&lt;/span&gt;&lt;/p&gt;&lt;/span&gt;" style="text;html=1;strokeColor=none;fillColor=none;align=center;verticalAlign=middle;whiteSpace=wrap;rounded=0;labelBackgroundColor=none;fontSize=12;fontStyle=1" vertex="1" parent="1X8zeMfitHZZ_awnZI0S-43">
          <mxGeometry x="600" y="270" width="110" height="30" as="geometry" />
        </mxCell>
        <mxCell id="1X8zeMfitHZZ_awnZI0S-57" value="&lt;span id=&quot;docs-internal-guid-4e5d340d-7fff-bbe1-20c7-7e94b57e3671&quot; style=&quot;font-size: 12px&quot;&gt;&lt;p dir=&quot;ltr&quot; style=&quot;line-height: 1.38 ; margin-top: 0pt ; margin-bottom: 0pt ; font-size: 12px&quot;&gt;&lt;span style=&quot;font-size: 12px ; font-family: &amp;#34;arial&amp;#34; ; background-color: transparent ; vertical-align: baseline&quot;&gt;moip-data-repository/inactive-accounts&lt;/span&gt;&lt;/p&gt;&lt;/span&gt;" style="text;html=1;strokeColor=none;fillColor=none;align=center;verticalAlign=middle;whiteSpace=wrap;rounded=0;labelBackgroundColor=none;fontSize=12;fontStyle=1" vertex="1" parent="1X8zeMfitHZZ_awnZI0S-43">
          <mxGeometry x="130" y="140" width="110" height="70" as="geometry" />
        </mxCell>
        <mxCell id="1X8zeMfitHZZ_awnZI0S-58" value="&lt;span id=&quot;docs-internal-guid-4e5d340d-7fff-bbe1-20c7-7e94b57e3671&quot; style=&quot;font-size: 12px&quot;&gt;&lt;p dir=&quot;ltr&quot; style=&quot;line-height: 1.38 ; margin-top: 0pt ; margin-bottom: 0pt ; font-size: 12px&quot;&gt;&lt;span style=&quot;font-size: 12px ; font-family: &amp;#34;arial&amp;#34; ; background-color: transparent ; vertical-align: baseline&quot;&gt;moip-data-repository/inactive-accounts&lt;/span&gt;&lt;/p&gt;&lt;/span&gt;" style="text;html=1;strokeColor=none;fillColor=none;align=center;verticalAlign=middle;whiteSpace=wrap;rounded=0;labelBackgroundColor=none;fontSize=12;fontStyle=1" vertex="1" parent="1X8zeMfitHZZ_awnZI0S-43">
          <mxGeometry x="430" y="140" width="110" height="70" as="geometry" />
        </mxCell>
        <mxCell id="1X8zeMfitHZZ_awnZI0S-17" value="" style="shape=image;html=1;verticalAlign=top;verticalLabelPosition=bottom;labelBackgroundColor=#ffffff;imageAspect=0;aspect=fixed;image=https://cdn3.iconfinder.com/data/icons/dompicon-glyph-file-format-2/256/file-csv-format-type-128.png" vertex="1" parent="1X8zeMfitHZZ_awnZI0S-43">
          <mxGeometry x="350" y="131" width="69" height="69" as="geometry" />
        </mxCell>
        <mxCell id="1X8zeMfitHZZ_awnZI0S-59" value="&lt;b style=&quot;font-weight: normal; font-size: 8px;&quot; id=&quot;docs-internal-guid-fe82151e-7fff-0b6e-fc11-3380a2caecae&quot;&gt;&lt;span style=&quot;font-size: 8px; font-family: arial; color: rgb(0, 0, 0); background-color: transparent; font-weight: 400; font-style: normal; font-variant: normal; text-decoration: none; vertical-align: baseline;&quot;&gt;notify_yyyymmdd_n.csv.partition&lt;/span&gt;&lt;/b&gt;" style="text;whiteSpace=wrap;html=1;fontSize=8;" vertex="1" parent="1X8zeMfitHZZ_awnZI0S-43">
          <mxGeometry x="334" y="255" width="230" height="30" as="geometry" />
        </mxCell>
        <mxCell id="1X8zeMfitHZZ_awnZI0S-60" value="&lt;b style=&quot;font-weight: normal&quot; id=&quot;docs-internal-guid-fe82151e-7fff-0b6e-fc11-3380a2caecae&quot;&gt;&lt;span style=&quot;font-size: 11pt ; font-family: &amp;#34;arial&amp;#34; ; color: rgb(0 , 0 , 0) ; background-color: transparent ; font-weight: 400 ; font-style: normal ; font-variant: normal ; text-decoration: none ; vertical-align: baseline&quot;&gt;notify_yyyymmdd_1.csv.partition&lt;/span&gt;&lt;/b&gt;" style="text;whiteSpace=wrap;html=1;fontSize=12;" vertex="1" parent="1X8zeMfitHZZ_awnZI0S-43">
          <mxGeometry x="269.5" y="101" width="230" height="30" as="geometry" />
        </mxCell>
        <mxCell id="1X8zeMfitHZZ_awnZI0S-65" value="" style="sketch=0;outlineConnect=0;fontColor=#232F3E;gradientColor=none;fillColor=#BF0816;strokeColor=none;dashed=0;verticalLabelPosition=bottom;verticalAlign=top;align=center;html=1;fontSize=12;fontStyle=0;aspect=fixed;shape=mxgraph.aws4.email;labelBackgroundColor=none;" vertex="1" parent="1X8zeMfitHZZ_awnZI0S-43">
          <mxGeometry x="809.39" y="350" width="45.22" height="40" as="geometry" />
        </mxCell>
        <mxCell id="1X8zeMfitHZZ_awnZI0S-67" value="User" style="shape=umlActor;verticalLabelPosition=bottom;verticalAlign=top;html=1;outlineConnect=0;labelBackgroundColor=none;fontSize=8;" vertex="1" parent="1X8zeMfitHZZ_awnZI0S-43">
          <mxGeometry x="859.72" y="340" width="20" height="40" as="geometry" />
        </mxCell>
        <mxCell id="1X8zeMfitHZZ_awnZI0S-34" value="" style="endArrow=classic;html=1;rounded=0;exitX=1;exitY=0.5;exitDx=0;exitDy=0;entryX=0;entryY=0.5;entryDx=0;entryDy=0;entryPerimeter=0;exitPerimeter=0;" edge="1" parent="1">
          <mxGeometry width="50" height="50" relative="1" as="geometry">
            <mxPoint x="135.5" y="858.5799999999999" as="sourcePoint" />
            <mxPoint x="206.99999999999977" y="858.5799999999999" as="targetPoint" />
          </mxGeometry>
        </mxCell>
        <mxCell id="1X8zeMfitHZZ_awnZI0S-44" value="" style="group" vertex="1" connectable="0" parent="1">
          <mxGeometry x="40" y="640" width="930" height="400" as="geometry" />
        </mxCell>
        <mxCell id="1X8zeMfitHZZ_awnZI0S-45" value="" style="endArrow=none;dashed=1;html=1;rounded=0;fontSize=16;" edge="1" parent="1X8zeMfitHZZ_awnZI0S-44">
          <mxGeometry width="50" height="50" relative="1" as="geometry">
            <mxPoint y="400" as="sourcePoint" />
            <mxPoint x="930" y="400" as="targetPoint" />
          </mxGeometry>
        </mxCell>
        <mxCell id="1X8zeMfitHZZ_awnZI0S-46" value="" style="endArrow=none;dashed=1;html=1;rounded=0;fontSize=16;" edge="1" parent="1X8zeMfitHZZ_awnZI0S-44">
          <mxGeometry width="50" height="50" relative="1" as="geometry">
            <mxPoint y="400" as="sourcePoint" />
            <mxPoint as="targetPoint" />
          </mxGeometry>
        </mxCell>
        <mxCell id="1X8zeMfitHZZ_awnZI0S-47" value="" style="endArrow=none;dashed=1;html=1;rounded=0;fontSize=16;" edge="1" parent="1X8zeMfitHZZ_awnZI0S-44">
          <mxGeometry width="50" height="50" relative="1" as="geometry">
            <mxPoint as="sourcePoint" />
            <mxPoint x="930" as="targetPoint" />
          </mxGeometry>
        </mxCell>
        <mxCell id="1X8zeMfitHZZ_awnZI0S-48" value="" style="endArrow=none;dashed=1;html=1;rounded=0;fontSize=16;" edge="1" parent="1X8zeMfitHZZ_awnZI0S-44">
          <mxGeometry width="50" height="50" relative="1" as="geometry">
            <mxPoint x="930" y="400" as="sourcePoint" />
            <mxPoint x="930" as="targetPoint" />
          </mxGeometry>
        </mxCell>
        <mxCell id="1X8zeMfitHZZ_awnZI0S-50" value="CHARGE FLOW PRODUCTION" style="text;html=1;strokeColor=none;fillColor=none;align=center;verticalAlign=middle;whiteSpace=wrap;rounded=0;labelBackgroundColor=none;fontSize=16;fontStyle=1" vertex="1" parent="1X8zeMfitHZZ_awnZI0S-44">
          <mxGeometry width="240" height="30" as="geometry" />
        </mxCell>
        <mxCell id="1X8zeMfitHZZ_awnZI0S-26" value="" style="endArrow=classic;html=1;rounded=0;exitX=1;exitY=0.5;exitDx=0;exitDy=0;" edge="1" parent="1X8zeMfitHZZ_awnZI0S-44">
          <mxGeometry width="50" height="50" relative="1" as="geometry">
            <mxPoint x="338.5000000000007" y="221.00000000000023" as="sourcePoint" />
            <mxPoint x="458.5" y="220" as="targetPoint" />
          </mxGeometry>
        </mxCell>
        <mxCell id="1X8zeMfitHZZ_awnZI0S-35" value="" style="shape=image;html=1;verticalAlign=top;verticalLabelPosition=bottom;labelBackgroundColor=#ffffff;imageAspect=0;aspect=fixed;image=https://cdn3.iconfinder.com/data/icons/dompicon-glyph-file-format-2/256/file-csv-format-type-128.png" vertex="1" parent="1X8zeMfitHZZ_awnZI0S-44">
          <mxGeometry x="364" y="140" width="69" height="69" as="geometry" />
        </mxCell>
        <mxCell id="1X8zeMfitHZZ_awnZI0S-24" value="" style="outlineConnect=0;dashed=0;verticalLabelPosition=bottom;verticalAlign=top;align=center;html=1;shape=mxgraph.aws3.queue;fillColor=#D9A741;gradientColor=none;" vertex="1" parent="1X8zeMfitHZZ_awnZI0S-44">
          <mxGeometry x="630" y="320" width="90" height="40" as="geometry" />
        </mxCell>
        <mxCell id="1X8zeMfitHZZ_awnZI0S-23" value="" style="sketch=0;outlineConnect=0;fontColor=#232F3E;gradientColor=none;fillColor=#2E27AD;strokeColor=none;dashed=0;verticalLabelPosition=bottom;verticalAlign=top;align=center;html=1;fontSize=12;fontStyle=0;aspect=fixed;pointerEvents=1;shape=mxgraph.aws4.rds_mysql_instance;" vertex="1" parent="1X8zeMfitHZZ_awnZI0S-44">
          <mxGeometry x="786" y="135.5" width="78" height="78" as="geometry" />
        </mxCell>
        <mxCell id="1X8zeMfitHZZ_awnZI0S-73" value="" style="endArrow=classic;html=1;rounded=0;fontSize=8;" edge="1" parent="1X8zeMfitHZZ_awnZI0S-44">
          <mxGeometry width="50" height="50" relative="1" as="geometry">
            <mxPoint x="710" y="370" as="sourcePoint" />
            <mxPoint x="760" y="320" as="targetPoint" />
          </mxGeometry>
        </mxCell>
        <mxCell id="1X8zeMfitHZZ_awnZI0S-75" value="&lt;font style=&quot;font-size: 11px&quot;&gt;Financial&lt;/font&gt;" style="strokeWidth=2;html=1;shape=mxgraph.flowchart.database;whiteSpace=wrap;labelBackgroundColor=none;fontSize=8;" vertex="1" parent="1X8zeMfitHZZ_awnZI0S-44">
          <mxGeometry x="860" y="300" width="60" height="60" as="geometry" />
        </mxCell>
        <mxCell id="1X8zeMfitHZZ_awnZI0S-76" value="StatsD Data" style="endArrow=classic;html=1;rounded=0;fontSize=10;entryX=0.5;entryY=1;entryDx=0;entryDy=0;entryPerimeter=0;exitX=0.5;exitY=0;exitDx=0;exitDy=0;exitPerimeter=0;" edge="1" parent="1X8zeMfitHZZ_awnZI0S-44">
          <mxGeometry width="50" height="50" relative="1" as="geometry">
            <mxPoint x="654.5" y="194.5" as="sourcePoint" />
            <mxPoint x="654.1750000000002" y="116" as="targetPoint" />
          </mxGeometry>
        </mxCell>
        <mxCell id="1X8zeMfitHZZ_awnZI0S-78" value="" style="outlineConnect=0;dashed=0;verticalLabelPosition=bottom;verticalAlign=top;align=center;html=1;shape=mxgraph.aws3.ec2;fillColor=#F58534;gradientColor=none;fontSize=16;" vertex="1" parent="1X8zeMfitHZZ_awnZI0S-44">
          <mxGeometry x="630" y="57" width="49.35" height="60" as="geometry" />
        </mxCell>
        <mxCell id="1X8zeMfitHZZ_awnZI0S-61" value="StatsD Data" style="endArrow=classic;html=1;rounded=0;fontSize=10;entryX=0.5;entryY=1;entryDx=0;entryDy=0;entryPerimeter=0;exitX=0.5;exitY=0;exitDx=0;exitDy=0;exitPerimeter=0;" edge="1" parent="1" source="1X8zeMfitHZZ_awnZI0S-3" target="1X8zeMfitHZZ_awnZI0S-19">
          <mxGeometry width="50" height="50" relative="1" as="geometry">
            <mxPoint x="470" y="470" as="sourcePoint" />
            <mxPoint x="520" y="420" as="targetPoint" />
          </mxGeometry>
        </mxCell>
        <mxCell id="1X8zeMfitHZZ_awnZI0S-62" value="" style="endArrow=classic;html=1;rounded=0;fontSize=8;exitX=1;exitY=0.5;exitDx=0;exitDy=0;exitPerimeter=0;" edge="1" parent="1" source="1X8zeMfitHZZ_awnZI0S-3" target="1X8zeMfitHZZ_awnZI0S-4">
          <mxGeometry width="50" height="50" relative="1" as="geometry">
            <mxPoint x="702" y="379.5" as="sourcePoint" />
            <mxPoint x="701.6750000000002" y="300.9999999999999" as="targetPoint" />
          </mxGeometry>
        </mxCell>
        <mxCell id="1X8zeMfitHZZ_awnZI0S-63" value="" style="endArrow=classic;html=1;rounded=0;fontSize=8;exitX=1;exitY=0.5;exitDx=0;exitDy=0;exitPerimeter=0;entryX=0;entryY=0.5;entryDx=0;entryDy=0;" edge="1" parent="1" source="1X8zeMfitHZZ_awnZI0S-3" target="1X8zeMfitHZZ_awnZI0S-20">
          <mxGeometry width="50" height="50" relative="1" as="geometry">
            <mxPoint x="727" y="404.5" as="sourcePoint" />
            <mxPoint x="831.7200000000003" y="378.6333147787366" as="targetPoint" />
          </mxGeometry>
        </mxCell>
        <mxCell id="1X8zeMfitHZZ_awnZI0S-66" value="" style="endArrow=classic;html=1;rounded=0;fontSize=8;exitX=0.5;exitY=1;exitDx=0;exitDy=0;" edge="1" parent="1" source="1X8zeMfitHZZ_awnZI0S-20">
          <mxGeometry width="50" height="50" relative="1" as="geometry">
            <mxPoint x="727" y="404.5" as="sourcePoint" />
            <mxPoint x="872" y="520" as="targetPoint" />
          </mxGeometry>
        </mxCell>
      </root>
    </mxGraphModel>
  </diagram>
</mxfile>
